<?xml version="1.0" standalone="no"?>
<!DOCTYPE svg PUBLIC "-//W3C//DTD SVG 20010904//EN"
 "http://www.w3.org/TR/2001/REC-SVG-20010904/DTD/svg10.dtd">
<svg version="1.0" xmlns="http://www.w3.org/2000/svg"
 width="255.000000pt" height="254.000000pt" viewBox="0 0 255.000000 254.000000"
 preserveAspectRatio="xMidYMid meet">

<g transform="translate(0.000000,254.000000) scale(0.100000,-0.100000)"
fill="#000000" stroke="none">
<path d="M1158 2469 c-7 -4 -22 -6 -33 -3 -11 2 -51 -5 -90 -16 -38 -12 -79
-21 -90 -21 -35 0 -259 -101 -340 -154 -89 -58 -160 -130 -251 -250 -107 -141
-181 -275 -213 -385 -7 -25 -19 -63 -26 -85 -19 -57 -25 -112 -31 -255 -9
-205 -11 -190 34 -345 12 -38 24 -81 28 -95 10 -37 111 -245 126 -261 7 -8 22
-25 33 -39 60 -75 335 -320 361 -320 3 0 18 -9 32 -19 24 -17 142 -70 167 -75
6 -1 24 -6 40 -12 104 -39 153 -46 332 -51 150 -3 192 -1 226 11 23 9 58 17
78 19 20 2 47 11 60 20 13 10 33 17 44 17 27 0 117 35 195 76 192 101 416 335
514 535 29 61 77 233 81 294 2 22 6 56 10 75 9 50 12 269 3 305 -3 17 -12 48
-17 70 -6 22 -13 56 -16 75 -9 76 -61 199 -137 323 -56 91 -221 283 -289 335
-83 65 -363 195 -446 207 -15 2 -59 11 -98 20 -73 16 -263 19 -287 4z"/>
</g>
</svg>
